<mxfile host="app.diagrams.net" modified="2024-06-13T06:46:28.248Z" agent="Mozilla/5.0 (Windows NT 10.0; Win64; x64) AppleWebKit/537.36 (KHTML, like Gecko) Chrome/116.0.0.0 Safari/537.36" etag="zw1xk2qjqHSUwlx5gqX9" version="24.5.3" type="github">
  <diagram name="第 1 页" id="3wBC5aZO0or2MzLLkAB7">
    <mxGraphModel dx="1050" dy="542" grid="1" gridSize="10" guides="1" tooltips="1" connect="1" arrows="1" fold="1" page="1" pageScale="1" pageWidth="827" pageHeight="1169" math="0" shadow="0">
      <root>
        <mxCell id="0" />
        <mxCell id="1" parent="0" />
        <mxCell id="KBHzEdIqT_XmXeJ4vEnn-2" value="" style="edgeStyle=orthogonalEdgeStyle;rounded=0;orthogonalLoop=1;jettySize=auto;html=1;" edge="1" parent="1" source="VWE_R7zerwp3d3oP0rRp-1" target="KBHzEdIqT_XmXeJ4vEnn-1">
          <mxGeometry relative="1" as="geometry" />
        </mxCell>
        <mxCell id="VWE_R7zerwp3d3oP0rRp-1" value="根据外部请求source，确认返回类型：&lt;div&gt;1：精准&lt;br&gt;2：残词（包含精准）&lt;br&gt;3：自然量 （包含精准）&lt;/div&gt;" style="whiteSpace=wrap;html=1;align=left;" parent="1" vertex="1">
          <mxGeometry x="302.5" y="40" width="210" height="60" as="geometry" />
        </mxCell>
        <mxCell id="KBHzEdIqT_XmXeJ4vEnn-1" value="" style="whiteSpace=wrap;html=1;" vertex="1" parent="1">
          <mxGeometry x="345" y="170" width="125" height="50" as="geometry" />
        </mxCell>
      </root>
    </mxGraphModel>
  </diagram>
</mxfile>
